<svg xmlns="http://www.w3.org/2000/svg" width="960" height="36" viewBox="0 0 960 36" fill="none">
  <path d="M0 6H960" stroke="#D4AF37" stroke-opacity=".18"/>
  <path d="M0 30H960" stroke="#D4AF37" stroke-opacity=".18"/>
  <path d="M0 6H24V18H12V30H48V6H72V30H108V18H96V6H144V30H180V18H168V6H216V30H252V18H240V6H288V30H324V18H312V6H360V30H396V18H384V6H432V30H468V18H456V6H504V30H540V18H528V6H576V30H612V18H600V6H648V30H684V18H672V6H720V30H756V18H744V6H792V30H828V18H816V6H864V30H900V18H888V6H936V30H960" stroke="#D4AF37" stroke-opacity=".28" stroke-width="2"/>
</svg>
