<svg xmlns="http://www.w3.org/2000/svg" width="1200" height="800" viewBox="0 0 1200 800" fill="none">
  <rect width="1200" height="800" fill="#F6F4F0"/>
  <path d="M-80 164C96 123 165 266 318 222c143-41 170-160 318-116 121 36 173 154 300 118 116-33 156-134 344-82" stroke="#2B2723" stroke-opacity=".035" stroke-width="22"/>
  <path d="M-50 540c185-62 276 48 420 6 118-34 145-113 284-80 168 40 190 166 366 124 76-18 118-53 218-50" stroke="#D4AF37" stroke-opacity=".045" stroke-width="18"/>
  <path d="M60 730c90-48 180-50 270-8 110 51 208 46 298-16 103-71 216-75 340-14" stroke="#627A53" stroke-opacity=".035" stroke-width="16"/>
</svg>
